<svg xmlns="http://www.w3.org/2000/svg" width="22.637" height="17.607" viewBox="0 0 22.637 17.607">
  <path id="Icon_awesome-book-open" data-name="Icon awesome-book-open" d="M21.31,2.252c-2.154.122-6.434.567-9.077,2.185a.6.6,0,0,0-.286.518v14.3a.622.622,0,0,0,.915.53c2.719-1.368,6.651-1.742,8.6-1.844a1.226,1.226,0,0,0,1.18-1.2V3.458A1.232,1.232,0,0,0,21.31,2.252ZM10.4,4.437C7.762,2.819,3.481,2.374,1.328,2.252A1.233,1.233,0,0,0,0,3.458V16.736a1.225,1.225,0,0,0,1.18,1.2c1.945.1,5.879.476,8.6,1.845a.62.62,0,0,0,.912-.529V4.947A.592.592,0,0,0,10.4,4.437Z" transform="translate(0 -2.25)" fill="#ffe200"/>
</svg>
