<svg width="11" height="16" viewBox="0 0 11 16" fill="none" xmlns="http://www.w3.org/2000/svg">
<path d="M10.5144 12.6801V2.06907C10.5136 1.73823 10.3819 1.42115 10.148 1.18712C9.91418 0.953086 9.59721 0.821124 9.26637 0.820068H1.77537C1.44436 0.820861 1.12713 0.952706 0.893066 1.18677C0.659005 1.42083 0.527159 1.73806 0.526367 2.06907V13.9291C0.526631 14.2604 0.658243 14.5782 0.892361 14.8127C1.12648 15.0472 1.44401 15.1793 1.77537 15.1801H9.26637C9.84637 15.1801 10.5154 15.1801 10.5154 14.5561V14.2441H2.08737C1.92203 14.2435 1.76362 14.1776 1.64672 14.0607C1.52981 13.9438 1.46389 13.7854 1.46337 13.6201V12.6801H10.5154H10.5144ZM2.08737 3.31707C2.08763 3.2344 2.12059 3.1552 2.17904 3.09674C2.2375 3.03829 2.3167 3.00533 2.39937 3.00507H8.64637C8.72903 3.00533 8.80824 3.03829 8.86669 3.09674C8.92515 3.1552 8.9581 3.2344 8.95837 3.31707V3.94107C8.9581 4.02373 8.92515 4.10294 8.86669 4.16139C8.80824 4.21985 8.72903 4.2528 8.64637 4.25307H2.39937C2.3167 4.2528 2.2375 4.21985 2.17904 4.16139C2.12059 4.10294 2.08763 4.02373 2.08737 3.94107V3.31707ZM2.08737 5.81707C2.08763 5.7344 2.12059 5.6552 2.17904 5.59674C2.2375 5.53829 2.3167 5.50533 2.39937 5.50507H8.64637C8.72903 5.50533 8.80824 5.53829 8.86669 5.59674C8.92515 5.6552 8.9581 5.7344 8.95837 5.81707V6.44107C8.9581 6.52373 8.92515 6.60294 8.86669 6.66139C8.80824 6.71985 8.72903 6.7528 8.64637 6.75307H2.39937C2.3167 6.7528 2.2375 6.71985 2.17904 6.66139C2.12059 6.60294 2.08763 6.52373 2.08737 6.44107V5.81407V5.81707Z" fill="black"/>
</svg>
