<svg width="22" height="23" viewBox="0 0 22 23" fill="none" xmlns="http://www.w3.org/2000/svg">
<path d="M20.2195 0.413963C20.1385 0.413963 20.1105 0.467963 20.0565 0.494963L9.88345 7.71096C9.74495 7.83736 9.62599 7.98362 9.53045 8.14496L9.17745 8.82296C10.1331 9.12365 11.002 9.65058 11.7104 10.359C12.4188 11.0674 12.9458 11.9363 13.2465 12.892L13.9245 12.539C14.0869 12.445 14.2334 12.3259 14.3585 12.186L21.5755 2.01496C21.6565 1.87896 21.6845 1.77096 21.5755 1.66196L20.3815 0.467963C20.3612 0.444374 20.3364 0.425061 20.3086 0.411153C20.2808 0.397246 20.2505 0.389022 20.2195 0.386963V0.413963ZM7.25245 11.183C6.78005 11.1869 6.31308 11.2842 5.87842 11.4692C5.44376 11.6543 5.04999 11.9235 4.71977 12.2613C4.38956 12.5992 4.12941 12.999 3.9543 13.4378C3.77919 13.8765 3.69258 14.3456 3.69945 14.818C3.6938 16.0889 3.35522 17.3363 2.71745 18.4356C2.07967 19.535 1.16497 20.4481 0.0644531 21.084C1.17783 21.6958 2.42904 22.0132 3.69945 22.006C4.64792 22.0086 5.58755 21.8238 6.46439 21.4622C7.34122 21.1006 8.13797 20.5694 8.80887 19.8989C9.47977 19.2285 10.0116 18.4321 10.3738 17.5555C10.736 16.6789 10.9214 15.7394 10.9195 14.791C10.9147 13.8275 10.5295 12.9049 9.84778 12.2241C9.16603 11.5433 8.24292 11.1594 7.27945 11.156L7.25245 11.183Z" fill="#FFE200"/>
</svg>
