<svg xmlns="http://www.w3.org/2000/svg" width="19.665" height="17.48" viewBox="0 0 19.665 17.48">
  <path id="Icon_awesome-hand-holding-heart" data-name="Icon awesome-hand-holding-heart" d="M9.4,8.551a.6.6,0,0,0,.871,0l3.718-3.9A2.83,2.83,0,0,0,13.8.6,2.6,2.6,0,0,0,10.214.86l-.382.4-.379-.4A2.592,2.592,0,0,0,5.872.6a2.833,2.833,0,0,0-.191,4.056ZM19.3,11.2a1.13,1.13,0,0,0-1.454,0L14.69,13.723a2.173,2.173,0,0,1-1.366.478H9.286a.546.546,0,0,1,0-1.092h2.673A1.137,1.137,0,0,0,13.1,12.2a1.094,1.094,0,0,0-1.079-1.277H6.555a4.018,4.018,0,0,0-2.53.9L2.438,13.109H.546A.548.548,0,0,0,0,13.655v3.277a.548.548,0,0,0,.546.546H12.727A2.188,2.188,0,0,0,14.093,17l5.162-4.131A1.092,1.092,0,0,0,19.3,11.2Z" transform="translate(0 0.002)" fill="#ffe200"/>
</svg>
