<svg width="22" height="15" viewBox="0 0 22 15" fill="none" xmlns="http://www.w3.org/2000/svg">
<path d="M21.629 8.816L18.989 13.342C18.7836 13.6943 18.4895 13.9866 18.136 14.1898C17.7824 14.3929 17.3818 14.4999 16.974 14.5H2.392C2.23804 14.5 2.08679 14.4595 1.95353 14.3824C1.82027 14.3053 1.70971 14.1944 1.63302 14.0609C1.55633 13.9274 1.51622 13.776 1.51675 13.622C1.51727 13.4681 1.5584 13.317 1.636 13.184L4.276 8.658C4.48146 8.30557 4.77574 8.01318 5.12948 7.80999C5.48322 7.6068 5.88406 7.49991 6.292 7.5H20.874C21.028 7.49995 21.1792 7.54053 21.3125 7.61764C21.4457 7.69474 21.5563 7.80564 21.633 7.93914C21.7097 8.07264 21.7498 8.22401 21.7493 8.37797C21.7487 8.53193 21.7076 8.68302 21.63 8.816H21.629ZM6.292 6.333H18.25V4.583C18.25 4.11887 18.0656 3.67375 17.7374 3.34556C17.4092 3.01737 16.9641 2.833 16.5 2.833H10.667L8.333 0.5H2.5C2.03587 0.5 1.59075 0.684375 1.26256 1.01256C0.934374 1.34075 0.75 1.78587 0.75 2.25L0.75 12.387L3.268 8.07C3.57714 7.5422 4.01877 7.1043 4.54917 6.79964C5.07956 6.49497 5.68033 6.33412 6.292 6.333Z" fill="black"/>
</svg>
