<svg width="20" height="16" viewBox="0 0 20 16" fill="none" xmlns="http://www.w3.org/2000/svg">
<path d="M9.75595 4.545L3.84595 9.412V14.667C3.84595 14.7344 3.85922 14.8011 3.885 14.8633C3.91079 14.9256 3.94857 14.9821 3.99621 15.0297C4.04385 15.0774 4.1004 15.1152 4.16264 15.1409C4.22488 15.1667 4.29159 15.18 4.35895 15.18L7.95095 15.167C8.08649 15.1662 8.2162 15.1118 8.31176 15.0157C8.40732 14.9196 8.46096 14.7895 8.46095 14.654V11.588C8.46095 11.4519 8.515 11.3215 8.61121 11.2253C8.70742 11.129 8.8379 11.075 8.97396 11.075H11.025C11.161 11.075 11.2915 11.129 11.3877 11.2253C11.4839 11.3215 11.538 11.4519 11.538 11.588V14.653C11.5378 14.7205 11.551 14.7873 11.5767 14.8496C11.6024 14.912 11.6402 14.9686 11.6879 15.0164C11.7355 15.0641 11.7921 15.102 11.8544 15.1279C11.9167 15.1537 11.9835 15.167 12.051 15.167L15.641 15.177C15.7083 15.177 15.775 15.1637 15.8373 15.1379C15.8995 15.1122 15.9561 15.0744 16.0037 15.0267C16.0513 14.9791 16.0891 14.9226 16.1149 14.8603C16.1407 14.7981 16.154 14.7314 16.154 14.664V9.409L10.246 4.545C10.1765 4.48916 10.0901 4.45872 10.001 4.45872C9.91184 4.45872 9.8254 4.48916 9.75595 4.545ZM19.09 7.853L16.41 5.644V1.205C16.41 1.10289 16.3694 1.00496 16.2972 0.932762C16.225 0.860561 16.1271 0.819998 16.025 0.819998H14.231C14.1288 0.819998 14.0309 0.860561 13.9587 0.932762C13.8865 1.00496 13.846 1.10289 13.846 1.205V3.532L10.977 1.167C10.7016 0.940339 10.3561 0.816406 9.99945 0.816406C9.64283 0.816406 9.29729 0.940339 9.02195 1.167L0.908955 7.853C0.830331 7.91812 0.780789 8.0118 0.771226 8.11344C0.761662 8.21508 0.792858 8.31636 0.857955 8.395L1.67495 9.389C1.70713 9.428 1.74667 9.46029 1.79132 9.48401C1.83597 9.50773 1.88485 9.52243 1.93518 9.52726C1.98551 9.53208 2.0363 9.52695 2.08465 9.51215C2.133 9.49735 2.17795 9.47317 2.21695 9.441L9.75595 3.231C9.8254 3.17516 9.91184 3.14472 10.001 3.14472C10.0901 3.14472 10.1765 3.17516 10.246 3.231L17.785 9.441C17.8636 9.50609 17.9649 9.53729 18.0665 9.52773C18.1682 9.51816 18.2618 9.46862 18.327 9.39L19.144 8.396C19.1762 8.35685 19.2003 8.31172 19.2151 8.2632C19.2298 8.21468 19.2348 8.16373 19.2298 8.11328C19.2247 8.06283 19.2098 8.01386 19.1858 7.96919C19.1618 7.92453 19.1292 7.88504 19.09 7.853Z" fill="black"/>
</svg>
