<svg width="22" height="22" viewBox="0 0 22 22" fill="none" xmlns="http://www.w3.org/2000/svg">
<path d="M11 0C8.82441 0 6.69767 0.645139 4.88873 1.85383C3.07979 3.06253 1.66989 4.7805 0.83733 6.79048C0.00476617 8.80047 -0.213071 11.0122 0.211367 13.146C0.635804 15.2798 1.68345 17.2398 3.22183 18.7782C4.76021 20.3166 6.72022 21.3642 8.85401 21.7886C10.9878 22.2131 13.1995 21.9952 15.2095 21.1627C17.2195 20.3301 18.9375 18.9202 20.1462 17.1113C21.3549 15.3023 22 13.1756 22 11C22 9.55546 21.7155 8.12506 21.1627 6.79048C20.6099 5.4559 19.7996 4.24327 18.7782 3.22183C17.7567 2.20038 16.5441 1.39013 15.2095 0.837325C13.8749 0.284523 12.4445 0 11 0ZM12 16.077H9.98V8.456H12V16.077ZM10.994 7.625C10.7871 7.61735 10.5869 7.54903 10.4185 7.42853C10.2501 7.30803 10.1209 7.14068 10.0468 6.94729C9.97277 6.75389 9.95723 6.543 10.0021 6.34084C10.047 6.13869 10.1503 5.95419 10.2992 5.8103C10.4482 5.6664 10.6361 5.56948 10.8397 5.53157C11.0433 5.49366 11.2535 5.51644 11.4442 5.59708C11.635 5.67772 11.7978 5.81266 11.9124 5.98512C12.0271 6.15757 12.0885 6.35992 12.089 6.567C12.0888 6.70903 12.0601 6.84957 12.0045 6.98028C11.949 7.11098 11.8677 7.22919 11.7655 7.32788C11.6634 7.42657 11.5425 7.50372 11.4099 7.55476C11.2774 7.6058 11.136 7.62969 10.994 7.625Z" fill="black"/>
</svg>
