<svg width="18" height="16" viewBox="0 0 18 16" fill="none" xmlns="http://www.w3.org/2000/svg">
<path d="M16.1784 0.821045H1.82137C1.34662 0.822634 0.891903 1.01255 0.557049 1.34909C0.222194 1.68563 0.0345698 2.1413 0.0353673 2.61604L0.0263672 13.384C0.0276866 13.8597 0.217226 14.3155 0.553568 14.6518C0.88991 14.9882 1.34571 15.1777 1.82137 15.179H16.1784C16.654 15.1777 17.1098 14.9882 17.4462 14.6518C17.7825 14.3155 17.972 13.8597 17.9734 13.384V2.61604C17.972 2.14039 17.7825 1.68459 17.4462 1.34825C17.1098 1.0119 16.654 0.822364 16.1784 0.821045ZM16.1784 4.41004L8.99937 8.89705L1.82137 4.41004V2.61604L9.00037 7.10304L16.1794 2.61604L16.1784 4.41004Z" fill="black"/>
</svg>
