<svg width="29" height="20" viewBox="0 0 29 20" fill="none" xmlns="http://www.w3.org/2000/svg">
<path d="M27 0H2C0.89543 0 0 0.89543 0 2C0 3.10457 0.89543 4 2 4H27C28.1046 4 29 3.10457 29 2C29 0.89543 28.1046 0 27 0Z" fill="#FFE200"/>
<path d="M27 8H2C0.89543 8 0 8.89543 0 10C0 11.1046 0.89543 12 2 12H27C28.1046 12 29 11.1046 29 10C29 8.89543 28.1046 8 27 8Z" fill="#FFE200"/>
<path d="M27 16H2C0.89543 16 0 16.8954 0 18C0 19.1046 0.89543 20 2 20H27C28.1046 20 29 19.1046 29 18C29 16.8954 28.1046 16 27 16Z" fill="#FFE200"/>
</svg>
