<svg width="15" height="18" viewBox="0 0 15 18" fill="none" xmlns="http://www.w3.org/2000/svg">
<path d="M12.6204 0.5H2.14639C1.68373 0.501319 1.24039 0.685696 0.913239 1.01285C0.586087 1.34 0.40171 1.78334 0.400391 2.246V16.211C0.40171 16.6737 0.586087 17.117 0.913239 17.4442C1.24039 17.7713 1.68373 17.9557 2.14639 17.957H12.6204C13.0831 17.9557 13.5264 17.7713 13.8535 17.4442C14.1807 17.117 14.3651 16.6737 14.3664 16.211V2.246C14.3651 1.78334 14.1807 1.34 13.8535 1.01285C13.5264 0.685696 13.0831 0.501319 12.6204 0.5V0.5ZM2.14639 2.246H6.51039V9.229L4.32839 7.919L2.14639 9.229V2.246ZM2.14639 15.339L4.76539 11.97L6.63339 14.222L9.25239 10.853L12.6214 15.339H2.14639Z" fill="black"/>
</svg>
