<svg width="14" height="14" viewBox="0 0 14 14" fill="none" xmlns="http://www.w3.org/2000/svg">
<path d="M13.3172 1.93198L11.7732 0.387984C11.6586 0.273267 11.5225 0.182263 11.3727 0.120172C11.2229 0.0580817 11.0623 0.026123 10.9002 0.026123C10.738 0.026123 10.5774 0.0580817 10.4276 0.120172C10.2778 0.182263 10.1418 0.273267 10.0272 0.387984L8.57615 1.84098L11.8642 5.12698L13.3172 3.67598C13.5482 3.44461 13.678 3.13098 13.678 2.80398C13.678 2.47699 13.5482 2.16336 13.3172 1.93198ZM6.97715 1.40498C6.78465 1.21312 6.52394 1.10538 6.25215 1.10538C5.98036 1.10538 5.71966 1.21312 5.52715 1.40498L2.47415 4.45598C2.39715 4.53305 2.3539 4.63754 2.3539 4.74648C2.3539 4.85543 2.39715 4.95992 2.47415 5.03698L3.05515 5.61798C3.13222 5.69499 3.23671 5.73824 3.34565 5.73824C3.4546 5.73824 3.55909 5.69499 3.63615 5.61798L6.25215 3.00298L6.83315 3.58398L2.94015 7.47698C1.59014 8.82485 0.739137 10.5921 0.527154 12.488V12.494C0.517031 12.5858 0.527651 12.6787 0.55823 12.7659C0.588809 12.853 0.638567 12.9322 0.703832 12.9976C0.769098 13.0629 0.848205 13.1128 0.935319 13.1435C1.02243 13.1742 1.11533 13.185 1.20715 13.175C3.10583 12.9658 4.87651 12.1157 6.22715 10.765L11.2822 5.70998L9.15715 3.58398L6.97715 1.40398V1.40498Z" fill="black"/>
</svg>
