<svg xmlns="http://www.w3.org/2000/svg" width="27.092" height="17.607" viewBox="0 0 27.092 17.607">
  <g id="Icon_ionic-ios-people" data-name="Icon ionic-ios-people" transform="translate(-2.215 -7.748)">
    <path id="Path_70" data-name="Path 70" d="M22.226,21.295c-.676-.241-1.78-.253-2.269-.44a3.205,3.205,0,0,1-1.05-.489,6.488,6.488,0,0,1-.175-1.72,2.778,2.778,0,0,0,.6-.845,9.388,9.388,0,0,0,.29-1.659s.4.169.555-.628c.133-.688.386-1.05.32-1.557s-.35-.386-.35-.386a4.518,4.518,0,0,0,.35-2.257,3.611,3.611,0,0,0-3.9-3.566,3.623,3.623,0,0,0-3.9,3.566,4.585,4.585,0,0,0,.344,2.257s-.284-.121-.35.386.181.869.32,1.557c.157.8.555.628.555.628a9.479,9.479,0,0,0,.29,1.659,2.778,2.778,0,0,0,.6.845,6.488,6.488,0,0,1-.175,1.72,3.085,3.085,0,0,1-1.05.483c-.483.187-1.587.211-2.269.453a4.258,4.258,0,0,0-2.764,4.055H24.984A4.25,4.25,0,0,0,22.226,21.295Z" transform="translate(-0.848)" fill="#ffe200"/>
    <path id="Path_71" data-name="Path 71" d="M8.762,18.847a4.1,4.1,0,0,0,2.015-.561c-.935-1.418-.428-3.071-.621-4.616a2.546,2.546,0,0,0-2.818-2.462H7.314A2.554,2.554,0,0,0,4.52,13.67c-.193,1.539.344,3.379-.615,4.616a3.791,3.791,0,0,0,2.021.5h0a3.056,3.056,0,0,1-.06,1.014,1.524,1.524,0,0,1-.724.332,14,14,0,0,0-1.563.434,2.54,2.54,0,0,0-1.364,2.245H7.06a4.335,4.335,0,0,1,1.931-1.8,4.052,4.052,0,0,1,1.49-.314s.229-.362-.525-.5a5.144,5.144,0,0,1-1.159-.4C8.683,19.661,8.762,18.847,8.762,18.847Z" transform="translate(0 -0.491)" fill="#ffe200"/>
    <path id="Path_72" data-name="Path 72" d="M25.823,18.847a4.1,4.1,0,0,1-2.015-.561c.935-1.418.428-3.071.621-4.616a2.546,2.546,0,0,1,2.818-2.462h.024a2.554,2.554,0,0,1,2.794,2.462c.193,1.539-.344,3.379.615,4.616a3.791,3.791,0,0,1-2.021.5h0a3.056,3.056,0,0,0,.06,1.014,1.524,1.524,0,0,0,.724.332,14,14,0,0,1,1.563.434,2.54,2.54,0,0,1,1.364,2.245H27.525a4.335,4.335,0,0,0-1.931-1.8A4.052,4.052,0,0,0,24.1,20.7s-.229-.362.525-.5a5.144,5.144,0,0,0,1.159-.4C25.9,19.661,25.823,18.847,25.823,18.847Z" transform="translate(-3.063 -0.491)" fill="#ffe200"/>
  </g>
</svg>
