<svg width="16" height="13" viewBox="0 0 16 13" fill="none" xmlns="http://www.w3.org/2000/svg">
<path d="M5.75781 6.60201C6.38 6.60261 6.98839 6.41863 7.506 6.07337C8.02361 5.72811 8.42718 5.23708 8.66565 4.6624C8.90412 4.08772 8.96677 3.45522 8.84567 2.84493C8.72458 2.23463 8.42519 1.67397 7.98537 1.23387C7.54555 0.793773 6.98508 0.494022 6.37486 0.372541C5.76464 0.25106 5.1321 0.313309 4.55727 0.551412C3.98244 0.789514 3.49115 1.19277 3.14556 1.71016C2.79997 2.22755 2.61561 2.83582 2.61581 3.45801C2.61581 4.29151 2.94678 5.09089 3.53596 5.68045C4.12514 6.27001 4.92432 6.60148 5.75781 6.60201ZM7.95781 7.38801H7.54781C6.98625 7.64697 6.37521 7.78106 5.75681 7.78106C5.13842 7.78106 4.52738 7.64697 3.96581 7.38801H3.55781C2.6826 7.38801 1.84323 7.73569 1.22436 8.35456C0.60549 8.97343 0.257813 9.8128 0.257812 10.688L0.257813 11.713C0.258077 12.0256 0.382378 12.3253 0.603426 12.5464C0.824474 12.7674 1.1242 12.8917 1.43681 12.892H10.0848C10.3974 12.8917 10.6972 12.7674 10.9182 12.5464C11.1392 12.3253 11.2635 12.0256 11.2638 11.713V10.69C11.2641 10.256 11.1787 9.82615 11.0126 9.42515C10.8465 9.02416 10.6029 8.65987 10.2959 8.35314C9.98876 8.04642 9.62417 7.80329 9.22297 7.63768C8.82178 7.47206 8.39185 7.38722 7.95781 7.38801ZM15.8928 4.23401L15.2098 3.54401C15.1828 3.51677 15.1506 3.49515 15.1152 3.4804C15.0797 3.46564 15.0417 3.45805 15.0033 3.45805C14.9649 3.45805 14.9269 3.46564 14.8915 3.4804C14.856 3.49515 14.8239 3.51677 14.7968 3.54401L12.2268 6.09601L11.1088 4.97101C11.0818 4.94377 11.0496 4.92215 11.0142 4.90739C10.9787 4.89264 10.9407 4.88505 10.9023 4.88505C10.8639 4.88505 10.8259 4.89264 10.7905 4.90739C10.755 4.92215 10.7229 4.94377 10.6958 4.97101L10.0058 5.65601C9.97857 5.68306 9.95695 5.71523 9.9422 5.75067C9.92744 5.78611 9.91985 5.82412 9.91985 5.86251C9.91985 5.9009 9.92744 5.93891 9.9422 5.97435C9.95695 6.00979 9.97857 6.04196 10.0058 6.06901L12.0128 8.09101C12.0399 8.11825 12.072 8.13987 12.1075 8.15463C12.1429 8.16938 12.1809 8.17698 12.2193 8.17698C12.2577 8.17698 12.2957 8.16938 12.3312 8.15463C12.3666 8.13987 12.3988 8.11825 12.4258 8.09101L15.8968 4.64701C15.9511 4.59199 15.9815 4.51781 15.9815 4.44051C15.9815 4.36322 15.9511 4.28903 15.8968 4.23401H15.8928Z" fill="black"/>
</svg>
