<svg width="56" height="56" viewBox="0 0 56 56" fill="none" xmlns="http://www.w3.org/2000/svg">
<path d="M28 56C43.464 56 56 43.464 56 28C56 12.536 43.464 0 28 0C12.536 0 0 12.536 0 28C0 43.464 12.536 56 28 56Z" fill="#25282B"/>
<path d="M20.937 29.238L19.587 32.138L15.129 25.099H18.315L20.937 29.238Z" fill="#FBE122"/>
<path d="M33.533 31.62H36.722L27.998 45.411L22.758 37.141L24.108 34.241L27.998 40.381L33.533 31.62Z" fill="#FBE122"/>
<path d="M41.347 25.869C41.3491 27.2155 40.8274 28.51 39.8922 29.4787C38.957 30.4475 37.6818 31.0146 36.336 31.06L24.973 31.086L22.409 36.586L19.938 32.686L23.464 25.097H27.728L26.77 27.118H36.331C36.6395 27.0724 36.9213 26.9174 37.125 26.6813C37.3287 26.4452 37.4407 26.1438 37.4407 25.832C37.4407 25.5202 37.3287 25.2188 37.125 24.9827C36.9213 24.7466 36.6395 24.5916 36.331 24.546H14.772L12.338 20.688L36.332 20.676C37.6788 20.7204 38.9554 21.2873 39.8915 22.2566C40.8275 23.2259 41.3496 24.5215 41.347 25.869Z" fill="#FBE122"/>
<path d="M46.693 15.914C46.322 16.514 41.574 23.868 41.574 23.868C41.2762 22.9094 40.7073 22.0574 39.936 21.415L41.809 18.577H14.192L15.192 20.138H11.997C11.997 20.138 9.67902 16.514 9.30802 15.914H46.693Z" fill="#FBE122"/>
</svg>
