<svg width="23" height="21" viewBox="0 0 23 21" fill="none" xmlns="http://www.w3.org/2000/svg">
<path d="M20.2391 12.187L21.9991 4.44397C22.0288 4.3132 22.0287 4.1774 21.9988 4.04667C21.9689 3.91594 21.9099 3.79363 21.8262 3.68882C21.7425 3.58401 21.6363 3.49939 21.5155 3.44125C21.3946 3.38311 21.2622 3.35294 21.1281 3.35297H6.5061L6.1641 1.68397C6.12285 1.48236 6.01324 1.30119 5.8538 1.17109C5.69436 1.04099 5.49489 0.969942 5.2891 0.969971H1.4721C1.23526 0.969971 1.00813 1.06405 0.840655 1.23152C0.673185 1.39899 0.579102 1.62613 0.579102 1.86297V2.46297C0.579102 2.69981 0.673185 2.92695 0.840655 3.09442C1.00813 3.26189 1.23526 3.35597 1.4721 3.35597H4.0721L6.6891 16.137C6.31064 16.3547 6.01008 16.6858 5.82982 17.0834C5.64957 17.4811 5.5987 17.9254 5.68441 18.3535C5.77012 18.7816 5.98808 19.1721 6.30753 19.4697C6.62699 19.7673 7.03183 19.9572 7.46494 20.0125C7.89806 20.0677 8.3376 19.9856 8.72156 19.7777C9.10552 19.5698 9.41453 19.2467 9.605 18.8538C9.79547 18.4609 9.85779 18.0181 9.78318 17.5879C9.70856 17.1577 9.50076 16.7618 9.1891 16.456H16.9891C16.6728 16.7659 16.4635 17.1685 16.3914 17.6054C16.3193 18.0422 16.3883 18.4907 16.5883 18.8858C16.7883 19.2809 17.1089 19.6019 17.5037 19.8025C17.8985 20.0031 18.3469 20.0727 18.7839 20.0012C19.2209 19.9298 19.6238 19.721 19.9341 19.4051C20.2445 19.0893 20.4461 18.6828 20.5099 18.2446C20.5737 17.8064 20.4962 17.3593 20.2887 16.9681C20.0813 16.577 19.7546 16.262 19.3561 16.069L19.5611 15.169C19.5908 15.0382 19.5907 14.9024 19.5608 14.7717C19.5309 14.6409 19.4719 14.5186 19.3882 14.4138C19.3045 14.309 19.1983 14.2244 19.0775 14.1663C18.9566 14.1081 18.8242 14.0779 18.6901 14.078H8.6991L8.4551 12.887H19.3671C19.5704 12.887 19.7677 12.8176 19.9262 12.6904C20.0848 12.5631 20.1952 12.3855 20.2391 12.187Z" fill="black"/>
</svg>
